<svg width="32" height="32" viewBox="0 0 32 32" fill="none" xmlns="http://www.w3.org/2000/svg">
<rect width="32" height="32" rx="16" fill="#0B0A07" fill-opacity="0.1"/>
<g clip-path="url(#clip0_340_31)">
<path d="M16.3204 15.28V17.4667H21.5471C21.3871 18.6933 20.9784 19.5913 20.3557 20.222C19.5911 20.9867 18.4004 21.822 16.3204 21.822C13.1024 21.822 10.5871 19.2267 10.5871 16.0087C10.5871 12.7907 13.1024 10.1953 16.3204 10.1953C18.0537 10.1953 19.3251 10.88 20.2584 11.76L21.7964 10.222C20.4984 8.96 18.7557 8 16.3204 8C11.9117 8 8.20508 11.5913 8.20508 16C8.20508 20.4087 11.9117 24 16.3204 24C18.7024 24 20.4984 23.218 21.9024 21.76C23.3424 20.32 23.7957 18.2847 23.7957 16.6487C23.7957 16.142 23.7604 15.6707 23.6804 15.28H16.3204Z" fill="white"/>
</g>
<defs>
<clipPath id="clip0_340_31">
<rect width="16" height="16" fill="white" transform="translate(8 8)"/>
</clipPath>
</defs>
</svg>
